<svg width="214" height="48" viewBox="0 0 214 48" fill="none" xmlns="http://www.w3.org/2000/svg">
<g id="SH.B.Logo-Website 1" clip-path="url(#clip0_253_76924)">
<g id="Group">
<g id="Group_2">
<g id="Group_3">
<g id="Group_4">
<path id="Vector" d="M41.5762 16.3003C41.5762 16.3003 39.9172 23.6446 31.749 23.6446V16.3003H41.5762Z" fill="#F27060"/>
<path id="Vector_2" d="M32.9133 1.62256H37.0258C43.7754 1.62256 49.247 6.36919 49.247 12.2241V16.9599H32.9133V1.62256Z" fill="#FAAF40"/>
<path id="Vector_3" d="M26.6014 41.6473H17.1444C10.3947 41.6473 4.92314 36.706 4.92314 30.6133V12.6566C4.92314 6.56111 10.3947 1.62256 17.1444 1.62256H32.9134V21.6363V32.2459V37.2764V47.8212L26.6014 41.6473Z" fill="#4D4D4F"/>
<path id="Vector_4" d="M26.3908 12.1399C26.3908 14.1159 24.7885 15.7188 22.8134 15.7188C20.8382 15.7188 19.2386 14.1159 19.2386 12.1399C19.2386 10.164 20.8382 8.56104 22.8134 8.56104C24.7885 8.56104 26.3908 10.164 26.3908 12.1399Z" fill="white"/>
<path id="Vector_5" d="M23.6023 12.87C23.6023 13.8593 22.8025 14.6595 21.8136 14.6595C20.8247 14.6595 20.0249 13.8593 20.0249 12.87C20.0249 11.8807 20.8247 11.0806 21.8136 11.0806C22.8025 11.0833 23.6023 11.8834 23.6023 12.87Z" fill="#4D4D4F"/>
<path id="Vector_6" d="M46.3371 41.6469H15.9123C9.84357 41.6469 4.92319 36.7246 4.92319 30.6534V28.9829C4.92319 23.3307 11.0271 19.7897 15.9312 22.5928L46.7234 40.2008C47.4098 40.5954 47.1287 41.6469 46.3371 41.6469Z" fill="#F27060"/>
</g>
<g id="Group_5">
<path id="Vector_7" d="M5.0015 27.8911V31.9728C5.65268 37.4222 10.2893 41.6472 15.9123 41.6472H46.337C47.1287 41.6472 47.4097 40.5957 46.7207 40.201L15.9285 22.593C14.7504 21.92 13.5048 21.6118 12.2888 21.6118C8.78162 21.6145 5.5392 24.1771 5.0015 27.8911Z" fill="#F27B70"/>
<g id="Clip path group">
<mask id="mask0_253_76924" style="mask-type:luminance" maskUnits="userSpaceOnUse" x="5" y="21" width="43" height="21">
<g id="SVGID_00000000221137385843770600000008849791074458209446_">
<path id="Vector_8" d="M5.0015 27.8911V31.9728C5.65268 37.4222 10.2893 41.6472 15.9123 41.6472H46.337C47.1287 41.6472 47.4097 40.5957 46.7207 40.201L15.9285 22.593C14.7504 21.92 13.5048 21.6118 12.2888 21.6118C8.78162 21.6145 5.5392 24.1771 5.0015 27.8911Z" fill="white"/>
</g>
</mask>
<g mask="url(#mask0_253_76924)">
<path id="Vector_9" d="M43.3594 42.5796H13.6831C8.27907 42.5796 3.90179 38.1979 3.90179 32.7944V31.3077C3.90179 26.2773 9.33556 23.1227 13.6993 25.6204L43.3594 42.5796Z" fill="#F05B5B"/>
</g>
</g>
</g>
</g>
</g>
<g id="Group_6">
<g id="Group_7">
<path id="Vector_10" d="M65.6861 34.0405C60.3333 34.0405 56.1776 31.4212 55.8939 27.4909H60.0496C60.4766 29.3993 62.7246 30.6238 65.6293 30.6238C68.334 30.6238 70.2417 29.4858 70.2417 27.9477C70.2417 23.193 56.1506 28.0342 56.1506 18.9194C56.1506 15.4162 59.8524 13.251 64.7484 13.251C69.9309 13.251 73.5732 15.7297 73.8867 19.3465H69.758C69.4148 17.8084 67.31 16.5542 64.7484 16.5542C61.96 16.5542 60.1361 17.6084 60.1361 19.0329C60.1361 23.4471 74.2271 18.8329 74.2271 28.0612C74.2244 31.3617 71.009 34.0405 65.6861 34.0405Z" fill="#4D4D4F"/>
<path id="Vector_11" d="M78.2127 33.9837H74.2272V13.251L78.2127 15.8892V21.6792C79.4637 19.9709 81.3443 18.9464 83.5357 18.9464C87.8049 18.9464 90.796 22.2226 90.796 26.9773V33.9837H86.8105V26.9773C86.8105 24.4148 84.9894 22.6199 82.4549 22.6199C79.9204 22.6199 78.2127 24.4148 78.2127 26.9773V33.9837Z" fill="#4D4D4F"/>
<path id="Vector_12" d="M99.3641 30.3371C102.209 30.3371 104.117 28.7423 104.117 26.5204C104.117 24.2417 102.209 22.6198 99.3641 22.6198C96.6323 22.6198 94.6383 24.2444 94.6383 26.5204C94.6383 28.7423 96.6594 30.3371 99.3641 30.3371ZM99.3641 18.9463C104.43 18.9463 108.102 21.9927 108.102 26.5204C108.102 30.9615 104.43 34.0377 99.3641 34.0377C94.3816 34.0377 90.6528 30.821 90.6528 26.5204C90.6528 22.1657 94.3545 18.9463 99.3641 18.9463Z" fill="#4D4D4F"/>
<path id="Vector_13" d="M115.846 30.3371C118.692 30.3371 120.599 28.7423 120.599 26.5204C120.599 24.2417 118.692 22.6198 115.846 22.6198C113.115 22.6198 111.12 24.2444 111.12 26.5204C111.12 28.7423 113.142 30.3371 115.846 30.3371ZM115.846 18.9463C120.913 18.9463 124.585 21.9927 124.585 26.5204C124.585 30.9615 120.913 34.0377 115.846 34.0377C110.864 34.0377 107.135 30.821 107.135 26.5204C107.135 22.1657 110.837 18.9463 115.846 18.9463Z" fill="#4D4D4F"/>
<path id="Vector_14" d="M134.436 19.3733V23.0468H130.224V33.9836L126.238 31.7751V23.0441H123.163V19.3733H126.238C126.238 15.3565 129 13.313 134.436 13.313V16.4702C131.648 16.4702 130.224 17.4109 130.224 19.376H134.436V19.3733Z" fill="#4D4D4F"/>
<path id="Vector_15" d="M141.543 31.8103C142.91 33.178 144.877 33.9295 147.082 33.9295C151.497 33.9295 154.826 30.9291 154.826 26.9528C154.826 22.8765 151.57 19.9166 147.082 19.9166C144.904 19.9166 142.645 20.7384 141.286 22.071L140.678 22.6684V15.2673L137.773 13.313V33.9863L141.251 31.5183L141.543 31.8103ZM146.768 22.3386C150.068 22.3386 152.462 24.2794 152.462 26.9528C152.462 29.5748 150.068 31.4805 146.768 31.4805C143.499 31.4805 141.218 29.6181 141.218 26.9528C141.218 24.2362 143.502 22.3386 146.768 22.3386Z" fill="#4D4D4F"/>
<path id="Vector_16" d="M162.275 19.9165C157.541 19.9165 154.104 22.8764 154.104 26.9527C154.104 30.9316 157.617 33.9293 162.275 33.9293C167.104 33.9293 170.473 31.0614 170.473 26.9527C170.473 22.8088 167.101 19.9165 162.275 19.9165ZM162.275 31.3073C159.225 31.3073 157.009 29.4746 157.009 26.95C157.009 24.3766 159.225 22.5061 162.275 22.5061C165.393 22.5061 167.568 24.3334 167.568 26.95C167.568 29.5179 165.391 31.3073 162.275 31.3073Z" fill="#4D4D4F"/>
<path id="Vector_17" d="M177.893 19.9165C173.159 19.9165 169.722 22.8764 169.722 26.9527C169.722 30.9316 173.234 33.9293 177.893 33.9293C182.721 33.9293 186.091 31.0614 186.091 26.9527C186.091 22.8088 182.721 19.9165 177.893 19.9165ZM177.893 31.3073C174.842 31.3073 172.627 29.4746 172.627 26.95C172.627 24.3766 174.842 22.5061 177.893 22.5061C181.011 22.5061 183.186 24.3334 183.186 26.95C183.186 29.5179 181.011 31.3073 177.893 31.3073Z" fill="#4D4D4F"/>
<path id="Vector_18" d="M196.766 33.9836H200.422L194.113 26.2797L200.422 19.7004H196.364L191.468 25.0255H188.925V15.2673L186.02 13.313V33.9836H188.925V27.561H191.443L196.766 33.9836Z" fill="#4D4D4F"/>
</g>
</g>
</g>
</g>
<defs>
<clipPath id="clip0_253_76924">
<rect width="214" height="47.5556" fill="white" transform="translate(0 0.222168)"/>
</clipPath>
</defs>
</svg>
